<svg width="34" height="31" viewBox="0 0 34 31" fill="none" xmlns="http://www.w3.org/2000/svg">
<rect width="34" height="31" rx="15.5" fill="#17131E"/>
<path d="M14.44 18.34C14.44 17.9133 14.48 17.5133 14.56 17.14C14.6533 16.7533 14.82 16.4 15.06 16.08C15.3 15.76 15.64 15.4733 16.08 15.22C16.2667 15.1 16.5067 14.96 16.8 14.8C17.1067 14.64 17.4 14.46 17.68 14.26C17.96 14.0467 18.1933 13.8 18.38 13.52C18.58 13.2267 18.68 12.8933 18.68 12.52C18.68 12.1467 18.5867 11.8333 18.4 11.58C18.2267 11.3267 17.9933 11.1333 17.7 11C17.42 10.8667 17.1133 10.8 16.78 10.8C16.3933 10.8 16.0467 10.8867 15.74 11.06C15.4333 11.22 15.1733 11.42 14.96 11.66C14.7467 11.9 14.5667 12.1467 14.42 12.4L12.68 11.2C12.92 10.6533 13.2467 10.1867 13.66 9.8C14.0867 9.41333 14.5733 9.12 15.12 8.92C15.68 8.72 16.26 8.62 16.86 8.62C17.3667 8.62 17.8667 8.7 18.36 8.86C18.8533 9.00667 19.3 9.24 19.7 9.56C20.1 9.88 20.42 10.2867 20.66 10.78C20.9 11.2733 21.02 11.8667 21.02 12.56C21.02 12.9867 20.9667 13.3667 20.86 13.7C20.7667 14.0333 20.6267 14.3333 20.44 14.6C20.2667 14.8533 20.0467 15.0867 19.78 15.3C19.5133 15.5133 19.2267 15.72 18.92 15.92C18.5733 16.1333 18.22 16.34 17.86 16.54C17.5133 16.74 17.22 16.98 16.98 17.26C16.7533 17.5267 16.64 17.8867 16.64 18.34H14.44ZM14.48 23V20.24H16.7V23H14.48Z" fill="white" fill-opacity="0.9"/>
</svg>
