<svg width="125" height="40" viewBox="0 0 125 40" fill="none" xmlns="http://www.w3.org/2000/svg">
<path d="M20 2.5H22.5V10H20V2.5ZM20 25H22.5V32.5H20V25ZM6.25 18.75V16.25H13.75V18.75H6.25ZM28.75 18.75V16.25H36.25V18.75H28.75ZM9.76 7.775L11.5275 6.01L16.83 11.3125L15.0625 13.08L9.76 7.7775V7.775ZM25.67 23.6875L27.4375 21.92L32.74 27.2225L30.9725 28.99L25.67 23.6875ZM4.455 36.0625L2.6875 34.295L15.0625 21.92L16.83 23.6875L4.455 36.0625ZM27.4375 13.08L25.67 11.3125L30.9725 6.01L32.74 7.7775L27.4375 13.08Z" fill="#5C0FDC"/>
<path d="M51.34 12.84H53.9L55.52 17.54L57.16 12.84H59.7L57.26 19.3L59.06 23.82L63.08 12.8H66.08L60.4 27H58.02L55.52 21.04L53.04 27H50.66L45 12.8H47.96L52 23.82L53.76 19.3L51.34 12.84ZM67.5347 27V12.8H70.2947V27H67.5347ZM72.3773 24.92L80.2973 15.22H72.5973V12.8H83.5773V14.88L75.9173 24.58H83.6373V27H72.3773V24.92ZM89.6564 12.8H92.4564L97.6764 27H94.8364L93.5164 23.46H88.5564L87.2564 27H84.4164L89.6564 12.8ZM93.0164 21.52L91.0564 15.66L89.0164 21.52H93.0164ZM99.2339 27V12.8H105.514C106.167 12.8 106.767 12.9333 107.314 13.2C107.874 13.4667 108.354 13.8267 108.754 14.28C109.167 14.7333 109.481 15.24 109.694 15.8C109.921 16.36 110.034 16.9333 110.034 17.52C110.034 18.12 109.927 18.7 109.714 19.26C109.514 19.8067 109.221 20.2867 108.834 20.7C108.447 21.1133 107.994 21.4333 107.474 21.66L110.714 27H107.674L104.754 22.24H101.994V27H99.2339ZM101.994 19.82H105.454C105.801 19.82 106.107 19.72 106.374 19.52C106.641 19.3067 106.854 19.0267 107.014 18.68C107.174 18.3333 107.254 17.9467 107.254 17.52C107.254 17.0667 107.161 16.6733 106.974 16.34C106.787 15.9933 106.547 15.72 106.254 15.52C105.974 15.32 105.667 15.22 105.334 15.22H101.994V19.82ZM112.535 27V12.82H115.295V19.56L121.255 12.8H124.295L118.855 19.1L124.635 27H121.515L117.095 20.88L115.295 22.76V27H112.535Z" fill="#5C0FDC"/>
</svg>
